<?xml version="1.0" encoding="UTF-8"?>
<svg version="1.1" xmlns="http://www.w3.org/2000/svg" width="1024" height="1024">
<path d="M0 0 C337.92 0 675.84 0 1024 0 C1024 337.92 1024 675.84 1024 1024 C686.08 1024 348.16 1024 0 1024 C0 686.08 0 348.16 0 0 Z " fill="#0A1219" transform="translate(0,0)"/>
<path d="M0 0 C0.86062042 -0.00511093 1.72124084 -0.01022186 2.60794067 -0.01548767 C5.45166994 -0.02938307 8.29515684 -0.02842697 11.13891602 -0.02612305 C13.11662384 -0.03000995 15.09433083 -0.03434461 17.07203674 -0.03910828 C21.2171601 -0.04657033 25.36219828 -0.04627926 29.50732422 -0.04101562 C34.8181639 -0.03522043 40.12865489 -0.05215334 45.43943691 -0.0753603 C49.52380918 -0.09009469 53.6080974 -0.09096974 57.69249153 -0.08785057 C59.65050001 -0.08836391 61.60851318 -0.09360402 63.5664959 -0.10366249 C66.30497754 -0.11600407 69.04277917 -0.10924896 71.78125 -0.09765625 C72.58920517 -0.10529999 73.39716034 -0.11294373 74.229599 -0.12081909 C79.83102549 -0.06842889 83.14251562 1.0169744 87.13525391 4.91455078 C89.10840334 8.44228067 89.76861096 12.09931211 90.57641602 16.03637695 C90.76244888 16.90043655 90.94848175 17.76449615 91.14015198 18.65473938 C91.7339675 21.42193431 92.31384914 24.19182369 92.89282227 26.9621582 C93.27791584 28.77551639 93.66397458 30.58866989 94.05102539 32.40161133 C94.2406485 33.29252472 94.43027161 34.18343811 94.62564087 35.10134888 C95.0089501 36.88884534 95.39677756 38.67537898 95.78915405 40.46090698 C96.72104434 44.71614851 97.58540038 48.95672621 98.2800293 53.25756836 C99.33356341 60.89606357 99.33356341 60.89606357 103.47265625 67.03735352 C106.11898626 68.1211929 108.65656791 68.69425615 111.45532227 69.2746582 C113.57150805 70.04311491 115.67547558 70.8458261 117.76782227 71.67700195 C121.11766347 72.94797112 124.46810263 74.21695455 127.82250977 75.47583008 C133.00594398 77.44858416 137.99194425 79.48747301 142.89282227 82.09106445 C146.60315932 83.98917583 149.2214946 85.08110157 153.45532227 84.2746582 C156.16293184 82.97970044 156.16293184 82.97970044 158.76782227 81.0246582 C160.32823242 79.93024414 160.32823242 79.93024414 161.92016602 78.8137207 C162.48461426 78.40798828 163.0490625 78.00225586 163.63061523 77.58422852 C165.58411365 76.18222617 167.55140913 74.80134867 169.52172852 73.4230957 C175.19805076 69.444935 180.84896286 65.43166271 186.47875977 61.38793945 C187.42356201 60.70997314 187.42356201 60.70997314 188.38745117 60.01831055 C189.56040519 59.17553536 190.73205477 58.33094029 191.90209961 57.48413086 C201.69035785 50.4438731 201.69035785 50.4438731 208.45532227 51.2746582 C211.70532227 53.1496582 211.70532227 53.1496582 214.45532227 55.2746582 C215.44532227 55.9346582 216.43532227 56.5946582 217.45532227 57.2746582 C217.45532227 57.9346582 217.45532227 58.5946582 217.45532227 59.2746582 C218.11532227 59.2746582 218.77532227 59.2746582 219.45532227 59.2746582 C220.81672668 60.65853882 220.81672668 60.65853882 222.43115234 62.6237793 C226.9524032 67.93646212 231.88161416 72.78892001 236.84204102 77.6887207 C237.83173575 78.67145085 238.82105256 79.65456173 239.81001282 80.63803101 C243.97203988 84.77584763 248.13986136 88.90779199 252.31201172 93.03540039 C254.87903483 95.57553664 257.44107808 98.12061015 260.00019264 100.66871262 C260.96905547 101.63140613 261.93980654 102.59220346 262.91254234 103.55098343 C276.02560226 116.47735408 276.02560226 116.47735408 276.61157227 124.2121582 C276.11747162 130.73428677 271.17162489 136.26954218 267.49829102 141.3918457 C264.70733083 145.33014133 262.0394353 149.34561926 259.38110352 153.37426758 C257.16085174 156.73510602 254.91089899 160.06682594 252.59204102 163.3605957 C252.12967041 164.02679932 251.6672998 164.69300293 251.19091797 165.37939453 C250.30603584 166.65265307 249.41053623 167.91862015 248.50292969 169.17578125 C245.82505469 173.06336725 244.66037736 175.5821103 245.45532227 180.2746582 C246.59343641 183.17081325 248.01551628 185.89362473 249.45532227 188.6496582 C253.81787633 197.31239462 256.91691841 206.13365069 259.62719727 215.44018555 C260.07579102 216.90512451 260.07579102 216.90512451 260.53344727 218.3996582 C260.91098145 219.70290039 260.91098145 219.70290039 261.29614258 221.0324707 C262.90595208 224.14630611 264.23697876 224.84477483 267.45532227 226.2746582 C270.83386316 227.22708016 274.24903303 227.92537562 277.68969727 228.61450195 C278.68229553 228.82273087 279.6748938 229.03095978 280.6975708 229.24549866 C284.92806861 230.13288342 289.16285461 230.99889719 293.39770508 231.86523438 C296.49682075 232.50254093 299.59323557 233.15194279 302.68969727 233.80200195 C303.63375427 233.99068344 304.57781128 234.17936493 305.55047607 234.37376404 C312.17430255 235.76735875 319.6035094 237.33372618 324.45532227 242.3371582 C326.7808575 246.84288271 326.61668011 251.1152589 326.63232422 256.05712891 C326.64218102 257.40395248 326.64218102 257.40395248 326.65223694 258.77798462 C326.67196282 261.75213707 326.68363045 264.72623906 326.69360352 267.70043945 C326.69767904 268.71622763 326.70175457 269.7320158 326.7059536 270.77858543 C326.72681046 276.15414603 326.74111433 281.52968113 326.75048828 286.90527344 C326.76155701 292.45710412 326.79596354 298.00853448 326.83565998 303.56022358 C326.86180358 307.82991786 326.87017808 312.09951639 326.87376976 316.36928368 C326.87864087 318.41580092 326.89026975 320.46231374 326.90880775 322.50875282 C326.93315281 325.37415958 326.93224266 328.23852541 326.92529297 331.10400391 C326.93810303 331.9473378 326.95091309 332.79067169 326.96411133 333.65956116 C326.91698245 338.99718821 326.01585693 342.04939687 322.45532227 346.2746582 C317.71443135 349.39366538 312.70001189 350.2042568 307.20532227 351.1496582 C305.34717776 351.48780672 303.4891085 351.82636889 301.63110352 352.1652832 C300.64190918 352.3425293 299.65271484 352.51977539 298.63354492 352.70239258 C292.88096014 353.73819368 287.13647669 354.81560161 281.39282227 355.8996582 C280.26908203 356.10574707 279.1453418 356.31183594 277.98754883 356.52416992 C276.9340625 356.72284668 275.88057617 356.92152344 274.79516602 357.1262207 C273.86051514 357.29976074 272.92586426 357.47330078 271.96289062 357.65209961 C268.46212157 358.52124196 266.20850852 359.15485573 264.14672852 362.22021484 C260.98283595 368.95238158 258.1550841 375.78136336 255.45532227 382.7121582 C254.62463769 384.83689358 253.79132 386.96060147 252.95532227 389.08325195 C252.54926758 390.11562988 252.14321289 391.14800781 251.72485352 392.21166992 C250.46882439 395.24208173 249.07416189 398.17143646 247.64282227 401.12231445 C245.69308675 405.40424548 244.61426723 408.51246822 245.45532227 413.2746582 C246.77135335 415.94748239 248.05726793 418.20488485 249.70532227 420.6496582 C250.37108276 421.67579224 250.37108276 421.67579224 251.05029297 422.72265625 C254.94427889 428.66383561 259.05196324 434.46003784 263.18041992 440.23974609 C277.33568384 460.06496166 277.33568384 460.06496166 276.16453552 467.16706848 C273.23482649 475.87337028 262.39456273 483.51769553 255.95141602 489.98168945 C255.3585335 490.57739935 254.76565098 491.17310925 254.15480232 491.78687096 C251.0253221 494.93124114 247.89305677 498.07280376 244.75830078 501.21191406 C241.53149976 504.4442261 238.3141034 507.68573482 235.09875393 510.92943287 C232.61160158 513.43522633 230.11774956 515.93426972 227.62202644 518.43152428 C226.43266321 519.62390445 225.24578983 520.81877378 224.06152153 522.01621437 C222.40611423 523.68873444 220.74143514 525.35146954 219.07421875 527.01220703 C218.5924971 527.50314346 218.11077545 527.9940799 217.61445618 528.49989319 C213.59454462 532.47123239 209.73217554 534.90587211 204.12719727 535.8137207 C198.98782558 535.0592172 195.84175923 532.67376512 191.70532227 529.6496582 C190.88692871 529.07078857 190.06853516 528.49191895 189.2253418 527.89550781 C186.61981295 526.04240558 184.03508956 524.16343362 181.45532227 522.2746582 C180.60099609 521.64994629 179.74666992 521.02523437 178.86645508 520.3815918 C175.58156725 517.97338426 172.29930772 515.56234907 169.03833008 513.12182617 C166.85509109 511.4904107 164.65702942 509.88103081 162.45532227 508.2746582 C161.69380859 507.6995752 160.93229492 507.12449219 160.14770508 506.53198242 C156.72473924 504.06064451 154.19996175 502.41850901 150.01782227 501.6105957 C145.03043582 502.54026204 140.9475271 504.59664579 136.45532227 506.8996582 C134.58726139 507.82373826 132.71745555 508.74429892 130.84594727 509.66137695 C129.93135742 510.1104541 129.01676758 510.55953125 128.07446289 511.0222168 C119.472902 515.1353793 110.50803505 518.31452835 101.45532227 521.2746582 C101.32480469 521.93771973 101.19428711 522.60078125 101.05981445 523.28393555 C98.77219342 534.88029118 96.48461518 546.47002065 93.83520508 557.98999023 C93.02395978 561.55667213 92.2893106 565.11639857 91.68188477 568.72387695 C91.5582959 569.44696045 91.43470703 570.17004395 91.30737305 570.91503906 C90.97916973 572.88175532 90.66963368 574.85156153 90.36157227 576.8215332 C89.22611482 581.1480176 87.58053919 584.7429483 83.86408997 587.42150879 C80.21928056 588.71244565 76.5804241 588.58657411 72.75878906 588.59692383 C71.88187408 588.60685364 71.00495911 588.61678345 70.10147095 588.62701416 C67.20246228 588.65620705 64.30367248 588.66985255 61.40454102 588.6809082 C59.38678482 588.69241526 57.36902868 588.70393068 55.35127258 588.7154541 C51.12040184 588.73645971 46.88960695 588.7481544 42.65869141 588.75512695 C37.24461128 588.76609403 31.83153778 588.81414731 26.41777325 588.87107086 C22.24924313 588.90837037 18.08095438 588.91873721 13.9122715 588.92179871 C11.91679188 588.9278424 9.92131604 588.94386833 7.9260006 588.97016907 C5.12990732 589.00439429 2.33625848 589.00050892 -0.45996094 588.98754883 C-1.27942703 589.00597839 -2.09889313 589.02440796 -2.94319153 589.043396 C-8.43564796 588.96389727 -11.23131962 587.55389605 -15.2157011 583.77941418 C-16.93429646 581.8335059 -17.68927345 580.30508875 -18.23217773 577.76293945 C-18.44358398 576.81112793 -18.65499023 575.85931641 -18.87280273 574.87866211 C-19.09452148 573.68934082 -19.31624023 572.50001953 -19.54467773 571.2746582 C-19.68969727 570.51763611 -19.8347168 569.76061401 -19.98413086 568.98065186 C-21.41388165 561.49779495 -22.7490511 553.9982003 -24.06518555 546.49462891 C-24.57113516 543.62162596 -25.08846551 540.75084898 -25.60717773 537.88012695 C-25.75727295 537.00502975 -25.90736816 536.12993256 -26.06201172 535.22831726 C-26.92646904 530.48229015 -27.92431509 526.41566253 -30.54467773 522.2746582 C-33.07223769 520.98246187 -35.18892248 520.10518723 -37.85717773 519.2746582 C-39.31253347 518.77474943 -40.76694776 518.27209239 -42.22045898 517.7668457 C-43.31414795 517.3951123 -43.31414795 517.3951123 -44.42993164 517.01586914 C-51.41150901 514.56885126 -58.19594323 511.51538294 -64.76342773 508.1184082 C-65.83270508 507.56709229 -65.83270508 507.56709229 -66.92358398 507.00463867 C-68.30225806 506.28642057 -69.67509558 505.55684537 -71.04077148 504.81420898 C-75.0923663 502.69209299 -78.0069175 501.3659559 -82.54467773 502.2746582 C-85.69808615 504.08585863 -88.50216816 506.27997976 -91.35717773 508.5246582 C-93.05006736 509.81389165 -94.74410145 511.10162354 -96.43920898 512.38793945 C-97.2907959 513.03972168 -98.14238281 513.69150391 -99.01977539 514.36303711 C-104.79349522 518.73436048 -110.73660355 522.87233742 -116.69213867 526.9909668 C-118.40237788 528.17605348 -120.10290055 529.37512971 -121.80249023 530.57543945 C-125.74725787 533.25723652 -128.62936808 535.10960236 -133.35717773 535.9621582 C-141.61700234 534.18062741 -147.06336073 526.95393572 -152.73217773 521.1496582 C-154.51508341 519.33234334 -156.3001427 517.51713808 -158.08764648 515.7043457 C-158.87163818 514.9023877 -159.65562988 514.10042969 -160.46337891 513.27416992 C-162.57778841 511.12516418 -162.57778841 511.12516418 -165.54467773 509.2746582 C-165.54467773 508.6146582 -165.54467773 507.9546582 -165.54467773 507.2746582 C-166.13570786 507.00796326 -166.72673798 506.74126831 -167.3356781 506.4664917 C-169.58824266 505.25115338 -171.07742042 504.00141576 -172.88867188 502.20532227 C-173.83469017 501.27360199 -173.83469017 501.27360199 -174.79981995 500.32305908 C-175.46972458 499.65224304 -176.13962921 498.981427 -176.82983398 498.2902832 C-177.52733261 497.5970697 -178.22483124 496.9038562 -178.94346619 496.18963623 C-180.41603085 494.72280925 -181.88598879 493.25336135 -183.35351562 491.78149414 C-185.59372087 489.53813402 -187.84689466 487.3084056 -190.10131836 485.0793457 C-191.53246778 483.65046991 -192.96283255 482.22080771 -194.39233398 480.7902832 C-195.06426285 480.12756409 -195.73619171 479.46484497 -196.42848206 478.78204346 C-200.71448417 474.45349876 -204.08001332 470.54451888 -204.96655273 464.3059082 C-204.43545826 460.48989602 -202.894655 457.91083916 -200.79467773 454.7746582 C-200.37581299 454.12609863 -199.95694824 453.47753906 -199.52539062 452.80932617 C-197.88376935 450.28509171 -196.21522969 447.7798503 -194.54467773 445.2746582 C-193.7376898 444.06026259 -192.93090002 442.84573529 -192.12426758 441.63110352 C-188.50492224 436.18393952 -184.88249795 430.73891883 -181.23901367 425.30786133 C-180.80591385 424.66174896 -180.37281403 424.0156366 -179.92658997 423.34994507 C-179.10266206 422.12140712 -178.27774263 420.8935334 -177.45170593 419.66641235 C-174.40435261 415.12181318 -173.20220154 412.81989384 -173.54467773 407.2746582 C-174.40103903 404.64870622 -174.40103903 404.64870622 -175.70483398 402.10668945 C-176.1655127 401.13965088 -176.62619141 400.1726123 -177.10083008 399.17626953 C-177.5979248 398.15686279 -178.09501953 397.13745605 -178.60717773 396.0871582 C-182.64017071 387.61683787 -186.28853846 379.18479007 -189.17382812 370.25244141 C-189.41738037 369.53403076 -189.66093262 368.81562012 -189.91186523 368.07543945 C-190.10893066 367.45838135 -190.30599609 366.84132324 -190.5090332 366.20556641 C-192.70739947 362.10682082 -195.38190457 359.6908711 -199.74829102 358.12792969 C-200.94180176 357.88631104 -202.1353125 357.64469238 -203.36499023 357.39575195 C-204.01746231 357.25820999 -204.66993439 357.12066803 -205.34217834 356.97895813 C-207.44817056 356.5391971 -209.55841468 356.12578999 -211.66967773 355.7121582 C-213.11969176 355.41292728 -214.56931814 355.11181191 -216.01855469 354.80883789 C-220.18955549 353.94172797 -224.36609223 353.10433352 -228.54467773 352.2746582 C-231.47566507 351.69003254 -234.40642757 351.10487336 -237.33520508 350.50927734 C-238.87901165 350.19715104 -240.42483791 349.89477499 -241.97290039 349.60449219 C-247.00282095 348.60461148 -250.8191446 347.18506989 -254.29467773 343.3371582 C-257.06714783 338.76258254 -256.69871136 333.84150648 -256.70581055 328.63818359 C-256.71077545 327.7678096 -256.71574036 326.89743561 -256.72085571 326.00068665 C-256.73544814 323.12455452 -256.74227362 320.2484775 -256.74780273 317.37231445 C-256.75355552 315.37218728 -256.75931324 313.37206013 -256.76507568 311.37193298 C-256.77557661 307.1797561 -256.78142558 302.98759834 -256.78491211 298.79541016 C-256.79040231 293.42406105 -256.81444544 288.05296472 -256.84288406 282.68169498 C-256.86150533 278.55101277 -256.86671572 274.42039159 -256.86824799 270.28967094 C-256.87127497 268.3093267 -256.87930502 266.32898354 -256.89243317 264.3486805 C-256.90948679 261.57909988 -256.90761536 258.81013915 -256.90112305 256.04052734 C-256.91494522 254.81456848 -256.91494522 254.81456848 -256.92904663 253.56384277 C-256.89519934 248.95476638 -256.47323704 246.04678024 -253.54467773 242.2746582 C-250.1145612 239.0064924 -247.39507455 237.6702517 -242.77514648 236.74731445 C-241.08723999 236.39914673 -241.08723999 236.39914673 -239.36523438 236.04394531 C-237.56687134 235.69408569 -237.56687134 235.69408569 -235.73217773 235.3371582 C-233.88064087 234.95539429 -233.88064087 234.95539429 -231.99169922 234.56591797 C-225.85058494 233.30451902 -219.69850243 232.11085921 -213.53686523 230.9543457 C-211.90841675 230.63904907 -211.90841675 230.63904907 -210.24707031 230.31738281 C-208.20075065 229.92294797 -206.15110145 229.54530059 -204.09814453 229.18701172 C-198.48797785 228.10235666 -194.98216188 227.1595041 -191.54467773 222.2746582 C-190.0407264 219.11987517 -188.87666376 215.88686852 -187.73217773 212.5871582 C-185.08218519 205.28734795 -182.28377376 198.11257805 -179.10717773 191.0246582 C-178.76517334 190.25677979 -178.42316895 189.48890137 -178.07080078 188.69775391 C-175.68737686 183.41735733 -175.68737686 183.41735733 -174.54467773 182.2746582 C-173.75417788 176.04145438 -174.75840203 171.630314 -178.35717773 166.4621582 C-178.77862061 165.82125244 -179.20006348 165.18034668 -179.63427734 164.52001953 C-181.24645758 162.08753461 -182.89476012 159.68171803 -184.54467773 157.2746582 C-185.31933624 156.13572274 -186.09338508 154.99637247 -186.86694336 153.85668945 C-187.2800325 153.24810593 -187.69312164 152.6395224 -188.11872864 152.01249695 C-188.97742975 150.7470915 -189.83606187 149.48163923 -190.69462585 148.21614075 C-192.85610213 145.03234152 -195.02385588 141.85323247 -197.20605469 138.68359375 C-197.61619812 138.08530762 -198.02634155 137.48702148 -198.44891357 136.87060547 C-199.57886196 135.22269424 -200.71218314 133.57709717 -201.84570312 131.93164062 C-204.60391848 127.61813902 -205.2677471 124.33614376 -204.54467773 119.2746582 C-199.07150181 110.73066205 -191.19098185 103.71341809 -183.98217773 96.6496582 C-181.78990823 94.49429559 -179.60095336 92.33564385 -177.41577148 90.1730957 C-176.89090652 89.65368408 -176.36604156 89.13427246 -175.82527161 88.59912109 C-172.49859312 85.28482276 -169.37064124 81.86649266 -166.32666016 78.29467773 C-162.40855404 73.85319123 -158.16710556 69.71253109 -153.98217773 65.5246582 C-153.06243164 64.59266602 -152.14268555 63.66067383 -151.19506836 62.70043945 C-150.29852539 61.80196289 -149.40198242 60.90348633 -148.47827148 59.9777832 C-147.67446045 59.16986328 -146.87064941 58.36194336 -146.04248047 57.52954102 C-142.28090535 54.13379203 -139.15032148 51.49631273 -134.06420898 50.79418945 C-129.89375591 51.36351879 -127.70600296 52.59961773 -124.23217773 54.9621582 C-123.64025635 55.36007568 -123.04833496 55.75799316 -122.43847656 56.16796875 C-117.46906077 59.54348143 -112.60279117 63.07127103 -107.73217773 66.5871582 C-106.97976807 67.13025635 -106.2273584 67.67335449 -105.45214844 68.23291016 C-101.56699046 71.04889515 -97.71526623 73.89956801 -93.90014648 76.80981445 C-92.40677154 77.92324948 -90.91328611 79.03653633 -89.41967773 80.1496582 C-88.74573975 80.67986572 -88.07180176 81.21007324 -87.37744141 81.75634766 C-83.85860911 84.34859636 -82.11074602 85.25772695 -77.62670898 85.3918457 C-72.77072209 84.37643851 -68.63073202 81.95757903 -64.35717773 79.5246582 C-55.9341071 74.90961271 -47.64512331 71.10022795 -38.41186523 68.3371582 C-37.42444336 68.0277832 -36.43702148 67.7184082 -35.41967773 67.3996582 C-34.55084961 67.15473633 -33.68202148 66.90981445 -32.78686523 66.6574707 C-28.76046744 64.17429158 -27.79420661 59.20977875 -26.625 54.828125 C-26.37290771 53.63872314 -26.12081543 52.44932129 -25.86108398 51.22387695 C-25.72075745 50.57154587 -25.58043091 49.91921478 -25.43585205 49.24711609 C-25.1392209 47.86403897 -24.84577015 46.48027633 -24.55532837 45.09588623 C-24.10234649 42.93915577 -23.63962224 40.78471803 -23.17431641 38.63061523 C-21.86451632 32.55365773 -20.57929998 26.47223202 -19.34155273 20.38012695 C-19.17067139 19.5600415 -18.99979004 18.73995605 -18.82373047 17.89501953 C-18.52522398 16.45840822 -18.23724435 15.01954382 -17.96289062 13.578125 C-16.93024714 8.64382183 -15.16302329 4.15609529 -10.94517517 1.12532043 C-7.34569832 -0.15022311 -3.77261417 -0.01153898 0 0 Z " fill="#2F516F" transform="translate(470.544677734375,200.725341796875)"/>
<path d="M0 0 C1.13566406 -0.00644531 2.27132812 -0.01289063 3.44140625 -0.01953125 C13.59957464 1.36433904 23.46713657 9.07035039 32.0625 14.25 C34.44895751 15.67840524 36.83759247 17.10314546 39.2265625 18.52734375 C40.12970184 19.0663179 40.12970184 19.0663179 41.05108643 19.61618042 C47.14312174 23.24559778 53.28666672 26.78379491 59.4375 30.3125 C68.27331837 35.38595268 77.05874223 40.53629027 85.8125 45.75 C94.96793379 51.20092301 104.17458411 56.54753692 113.4375 61.8125 C122.46537668 66.95053772 131.47103246 72.12310269 140.42041016 77.39697266 C142.13133827 78.40442991 143.84492316 79.40737102 145.55859375 80.41015625 C161.90769784 90.08287343 161.90769784 90.08287343 165.8125 96.3125 C166.50472656 97.37984375 166.50472656 97.37984375 167.2109375 98.46875 C169.90864357 103.62360235 170.68993393 108.15401918 170.71165466 113.94509888 C170.71689134 114.64004609 170.72212802 115.3349933 170.72752339 116.05099952 C170.74246241 118.36755488 170.74322719 120.68388816 170.74389648 123.00048828 C170.75152227 124.66661448 170.75995049 126.33273717 170.76911926 127.99885559 C170.79103428 132.51776378 170.79985954 137.03660431 170.80494571 141.55555964 C170.80859389 144.38292265 170.81483646 147.21026807 170.8219471 150.03762436 C170.8464346 159.91343714 170.85949125 169.78919748 170.86303711 179.66503906 C170.8666682 188.85023329 170.89653481 198.03509251 170.93844169 207.22018445 C170.97321714 215.12107609 170.98858683 223.02185714 170.98928314 230.92282474 C170.99007371 235.63489941 170.99871022 240.34663293 171.02728081 245.05862808 C171.05358495 249.49605185 171.05559838 253.93285468 171.03962517 258.37032127 C171.03782024 259.99075749 171.0444142 261.61123043 171.06044388 263.23158836 C171.16728467 274.74176221 169.96256037 284.97664465 162.0625 294 C156.89374127 298.65568341 150.90381073 302.00725538 144.88476562 305.42236328 C142.15003667 306.97578973 139.42615908 308.54725872 136.703125 310.12109375 C133.45500501 311.99798244 130.20622811 313.87366062 126.95483398 315.74487305 C115.59317324 322.28409167 104.28631721 328.91540171 92.98350525 335.55566406 C88.63415145 338.11070359 84.28255146 340.6618831 79.9296875 343.2109375 C68.98350797 349.62165071 58.04136761 356.03858314 47.125 362.5 C43.56344231 364.60576517 40.00082054 366.70971933 36.4375 368.8125 C34.8587207 369.74449219 34.8587207 369.74449219 33.24804688 370.6953125 C29.9593391 372.63416312 26.66757729 374.56772934 23.375 376.5 C21.84782349 377.40141724 21.84782349 377.40141724 20.28979492 378.32104492 C19.33693604 378.87896729 18.38407715 379.43688965 17.40234375 380.01171875 C16.5630835 380.50502686 15.72382324 380.99833496 14.85913086 381.5065918 C10.00376825 384.12493383 6.22671731 385.12595314 0.6875 385.1875 C-0.46234375 385.21585938 -1.6121875 385.24421875 -2.796875 385.2734375 C-12.50454629 384.08515408 -20.86969358 377.8512924 -29.125 372.9375 C-30.41610047 372.17409699 -31.70752821 371.41124722 -32.99926758 370.64892578 C-35.61356868 369.10569378 -38.22667527 367.56047115 -40.83886719 366.01367188 C-46.129795 362.88306191 -51.43858123 359.78318612 -56.75 356.6875 C-58.19644897 355.84372803 -58.19644897 355.84372803 -59.67211914 354.98291016 C-68.05127781 350.09977499 -76.45263744 345.25541425 -84.85668945 340.4152832 C-93.04308331 335.69768996 -101.20397731 330.93769335 -109.35864258 326.16552734 C-114.83352579 322.96812704 -120.32305933 319.79833623 -125.83203125 316.66015625 C-126.7588269 316.1320208 -126.7588269 316.1320208 -127.7043457 315.59321594 C-130.69590208 313.88935689 -133.68923564 312.18878711 -136.68505859 310.49243164 C-142.37858861 307.25623687 -148.0403518 303.97301445 -153.640625 300.578125 C-154.67993164 299.94938477 -155.71923828 299.32064453 -156.79003906 298.67285156 C-164.09612112 293.77039072 -168.33255713 287.27323532 -170.5625 278.8125 C-171.13225166 273.18398132 -171.11066657 267.59154374 -171.08007812 261.93920898 C-171.08550663 260.2479187 -171.09263337 258.55663314 -171.10131836 256.86535645 C-171.11946667 252.29718897 -171.11251987 247.72938511 -171.09980202 243.16121173 C-171.0896318 238.36747982 -171.09907867 233.57377777 -171.10534668 228.78004456 C-171.11261071 220.7329452 -171.10306738 212.685993 -171.08398438 204.63891602 C-171.06221063 195.35022173 -171.06927566 186.06187862 -171.09129 176.77319282 C-171.10947069 168.78052953 -171.11198951 160.78797164 -171.10153532 152.79529434 C-171.095316 148.02924189 -171.09442178 143.26335425 -171.10768127 138.49731255 C-171.11927836 134.01637032 -171.11114397 129.53587883 -171.08810425 125.05498505 C-171.08283801 123.41556863 -171.08429503 121.77611396 -171.09315491 120.13671303 C-171.15025501 108.49326347 -170.04934339 99.42269868 -161.5625 90.8125 C-159.32927728 89.08720951 -156.98706918 87.62785924 -154.5625 86.1875 C-153.86664795 85.763479 -153.1707959 85.33945801 -152.45385742 84.90258789 C-146.12032129 81.07409153 -139.68911737 77.41205481 -133.2512207 73.76269531 C-125.54241374 69.39137574 -117.89041519 64.92677573 -110.25 60.4375 C-109.00358117 59.70532152 -107.75716189 58.97314379 -106.51074219 58.2409668 C-104.65340257 57.14989377 -102.79607173 56.05880595 -100.93884277 54.96754456 C-95.00930643 51.48474851 -89.06767994 48.02281315 -83.125 44.5625 C-75.69363183 40.23293624 -68.27637874 35.88062918 -60.875 31.5 C-52.7211839 26.67672148 -44.56557487 21.85651945 -36.39901733 17.05484009 C-35.15813022 16.32472936 -33.91773169 15.59378743 -32.67788696 14.86190796 C-28.65371572 12.4869205 -24.61367698 10.14126642 -20.5625 7.8125 C-19.69726212 7.30772629 -19.69726212 7.30772629 -18.81454468 6.79275513 C-6.84086622 -0.16343366 -6.84086622 -0.16343366 0 0 Z " fill="#2F516F" transform="translate(506.5625,305.1875)"/>
<path d="M0 0 C1.13566406 -0.00644531 2.27132812 -0.01289063 3.44140625 -0.01953125 C13.59957464 1.36433904 23.46713657 9.07035039 32.0625 14.25 C34.44895751 15.67840524 36.83759247 17.10314546 39.2265625 18.52734375 C40.12970184 19.0663179 40.12970184 19.0663179 41.05108643 19.61618042 C47.14312174 23.24559778 53.28666672 26.78379491 59.4375 30.3125 C68.27331837 35.38595268 77.05874223 40.53629027 85.8125 45.75 C94.96793379 51.20092301 104.17458411 56.54753692 113.4375 61.8125 C122.46537668 66.95053772 131.47103246 72.12310269 140.42041016 77.39697266 C142.13133827 78.40442991 143.84492316 79.40737102 145.55859375 80.41015625 C161.90769784 90.08287343 161.90769784 90.08287343 165.8125 96.3125 C166.50472656 97.37984375 166.50472656 97.37984375 167.2109375 98.46875 C169.90864357 103.62360235 170.68993393 108.15401918 170.71165466 113.94509888 C170.71689134 114.64004609 170.72212802 115.3349933 170.72752339 116.05099952 C170.74246241 118.36755488 170.74322719 120.68388816 170.74389648 123.00048828 C170.75152227 124.66661448 170.75995049 126.33273717 170.76911926 127.99885559 C170.79103428 132.51776378 170.79985954 137.03660431 170.80494571 141.55555964 C170.80859389 144.38292265 170.81483646 147.21026807 170.8219471 150.03762436 C170.8464346 159.91343714 170.85949125 169.78919748 170.86303711 179.66503906 C170.8666682 188.85023329 170.89653481 198.03509251 170.93844169 207.22018445 C170.97321714 215.12107609 170.98858683 223.02185714 170.98928314 230.92282474 C170.99007371 235.63489941 170.99871022 240.34663293 171.02728081 245.05862808 C171.05358495 249.49605185 171.05559838 253.93285468 171.03962517 258.37032127 C171.03782024 259.99075749 171.0444142 261.61123043 171.06044388 263.23158836 C171.16728467 274.74176221 169.96256037 284.97664465 162.0625 294 C156.89374127 298.65568341 150.90381073 302.00725538 144.88476562 305.42236328 C142.15003667 306.97578973 139.42615908 308.54725872 136.703125 310.12109375 C133.45500501 311.99798244 130.20622811 313.87366062 126.95483398 315.74487305 C115.59317324 322.28409167 104.28631721 328.91540171 92.98350525 335.55566406 C88.63415145 338.11070359 84.28255146 340.6618831 79.9296875 343.2109375 C68.98350797 349.62165071 58.04136761 356.03858314 47.125 362.5 C43.56344231 364.60576517 40.00082054 366.70971933 36.4375 368.8125 C34.8587207 369.74449219 34.8587207 369.74449219 33.24804688 370.6953125 C29.9593391 372.63416312 26.66757729 374.56772934 23.375 376.5 C21.84782349 377.40141724 21.84782349 377.40141724 20.28979492 378.32104492 C19.33693604 378.87896729 18.38407715 379.43688965 17.40234375 380.01171875 C16.5630835 380.50502686 15.72382324 380.99833496 14.85913086 381.5065918 C10.00376825 384.12493383 6.22671731 385.12595314 0.6875 385.1875 C-0.46234375 385.21585938 -1.6121875 385.24421875 -2.796875 385.2734375 C-12.50454629 384.08515408 -20.86969358 377.8512924 -29.125 372.9375 C-30.41610047 372.17409699 -31.70752821 371.41124722 -32.99926758 370.64892578 C-35.61356868 369.10569378 -38.22667527 367.56047115 -40.83886719 366.01367188 C-46.129795 362.88306191 -51.43858123 359.78318612 -56.75 356.6875 C-58.19644897 355.84372803 -58.19644897 355.84372803 -59.67211914 354.98291016 C-68.05127781 350.09977499 -76.45263744 345.25541425 -84.85668945 340.4152832 C-93.04308331 335.69768996 -101.20397731 330.93769335 -109.35864258 326.16552734 C-114.83352579 322.96812704 -120.32305933 319.79833623 -125.83203125 316.66015625 C-126.7588269 316.1320208 -126.7588269 316.1320208 -127.7043457 315.59321594 C-130.69590208 313.88935689 -133.68923564 312.18878711 -136.68505859 310.49243164 C-142.37858861 307.25623687 -148.0403518 303.97301445 -153.640625 300.578125 C-154.67993164 299.94938477 -155.71923828 299.32064453 -156.79003906 298.67285156 C-164.09612112 293.77039072 -168.33255713 287.27323532 -170.5625 278.8125 C-171.13225166 273.18398132 -171.11066657 267.59154374 -171.08007812 261.93920898 C-171.08550663 260.2479187 -171.09263337 258.55663314 -171.10131836 256.86535645 C-171.11946667 252.29718897 -171.11251987 247.72938511 -171.09980202 243.16121173 C-171.0896318 238.36747982 -171.09907867 233.57377777 -171.10534668 228.78004456 C-171.11261071 220.7329452 -171.10306738 212.685993 -171.08398438 204.63891602 C-171.06221063 195.35022173 -171.06927566 186.06187862 -171.09129 176.77319282 C-171.10947069 168.78052953 -171.11198951 160.78797164 -171.10153532 152.79529434 C-171.095316 148.02924189 -171.09442178 143.26335425 -171.10768127 138.49731255 C-171.11927836 134.01637032 -171.11114397 129.53587883 -171.08810425 125.05498505 C-171.08283801 123.41556863 -171.08429503 121.77611396 -171.09315491 120.13671303 C-171.15025501 108.49326347 -170.04934339 99.42269868 -161.5625 90.8125 C-159.32927728 89.08720951 -156.98706918 87.62785924 -154.5625 86.1875 C-153.86664795 85.763479 -153.1707959 85.33945801 -152.45385742 84.90258789 C-146.12032129 81.07409153 -139.68911737 77.41205481 -133.2512207 73.76269531 C-125.54241374 69.39137574 -117.89041519 64.92677573 -110.25 60.4375 C-109.00358117 59.70532152 -107.75716189 58.97314379 -106.51074219 58.2409668 C-104.65340257 57.14989377 -102.79607173 56.05880595 -100.93884277 54.96754456 C-95.00930643 51.48474851 -89.06767994 48.02281315 -83.125 44.5625 C-75.69363183 40.23293624 -68.27637874 35.88062918 -60.875 31.5 C-52.7211839 26.67672148 -44.56557487 21.85651945 -36.39901733 17.05484009 C-35.15813022 16.32472936 -33.91773169 15.59378743 -32.67788696 14.86190796 C-28.65371572 12.4869205 -24.61367698 10.14126642 -20.5625 7.8125 C-19.69726212 7.30772629 -19.69726212 7.30772629 -18.81454468 6.79275513 C-6.84086622 -0.16343366 -6.84086622 -0.16343366 0 0 Z M-14.3125 48.75 C-16.0714284 49.85783522 -17.83194465 50.96315202 -19.59375 52.06640625 C-21.02074219 52.96963623 -21.02074219 52.96963623 -22.4765625 53.89111328 C-27.57358149 57.0646528 -32.76267034 60.07985401 -37.95016479 63.10214233 C-39.82484283 64.19469333 -41.69793706 65.28991138 -43.57055664 66.38598633 C-46.6526367 68.18990398 -49.73570322 69.99212572 -52.81915283 71.79370117 C-55.49321671 73.35640377 -58.16642353 74.92057158 -60.83984375 76.484375 C-69.98232113 81.82777986 -79.13728338 87.14722834 -88.32299805 92.41601562 C-98.07189272 98.01523292 -107.79253902 103.66080605 -117.4375 109.4375 C-118.40051025 110.00533203 -119.36352051 110.57316406 -120.35571289 111.15820312 C-121.24637451 111.69638672 -122.13703613 112.23457031 -123.0546875 112.7890625 C-123.83183105 113.25393066 -124.60897461 113.71879883 -125.40966797 114.19775391 C-128.89946659 116.81530076 -131.29301935 119.27811959 -132.06307125 123.66267395 C-132.06328053 124.71347641 -132.06348982 125.76427887 -132.06370544 126.84692383 C-132.07353958 128.05820953 -132.08337372 129.26949524 -132.09350586 130.51748657 C-132.08413479 131.85150429 -132.07435552 133.1855192 -132.06420898 134.51953125 C-132.0679939 135.93086282 -132.07349537 137.34219067 -132.08058167 138.75350952 C-132.09453132 142.58003171 -132.08337026 146.40610401 -132.06687045 150.23260117 C-132.05300838 154.23946221 -132.05948135 158.24629745 -132.06300354 162.25317383 C-132.06570475 168.98168172 -132.05223778 175.71001114 -132.02905273 182.43847656 C-132.00244348 190.21443256 -132.00069619 197.99009016 -132.0124411 205.76607609 C-132.02322522 213.25028865 -132.01702685 220.73439341 -132.00288582 228.21859741 C-131.9971315 231.40191195 -131.99720432 234.58514745 -132.00195122 237.76846313 C-132.00672819 241.51797837 -131.99658983 245.26716743 -131.97499657 249.01662064 C-131.96943828 250.39163742 -131.96895463 251.76668561 -131.97394943 253.14170456 C-131.97991769 255.02050232 -131.96554247 256.89933174 -131.95018005 258.77807617 C-131.94775016 259.82887863 -131.94532026 260.87968109 -131.94281673 261.96232605 C-131.40617775 265.98401198 -129.85550024 268.70560538 -126.77978516 271.33862305 C-126.10222168 271.76699463 -125.4246582 272.19536621 -124.7265625 272.63671875 C-123.92895508 273.14122559 -123.13134766 273.64573242 -122.30957031 274.16552734 C-117.506427 277.0451936 -112.65519431 279.83595197 -107.77758789 282.58691406 C-104.63648756 284.35896642 -101.50179379 286.14227366 -98.3671875 287.92578125 C-97.75901184 288.27162262 -97.15083618 288.61746399 -96.52423096 288.9737854 C-92.33247468 291.36186309 -88.18406137 293.80562091 -84.0625 296.3125 C-75.99944787 301.20427096 -67.79514502 305.84775931 -59.60180664 310.51635742 C-58.37515298 311.21531487 -57.14850914 311.91428955 -55.921875 312.61328125 C-55.31000839 312.96192734 -54.69814178 313.31057343 -54.06773376 313.66978455 C-47.69968725 317.30053123 -41.34902205 320.96108716 -35 324.625 C-33.39777588 325.54575317 -33.39777588 325.54575317 -31.76318359 326.48510742 C-26.7994445 329.34184468 -21.85744909 332.22461095 -16.9609375 335.1953125 C-16.09670166 335.71375732 -15.23246582 336.23220215 -14.34204102 336.76635742 C-12.75660498 337.71981559 -11.17824663 338.68519871 -9.60913086 339.6652832 C-5.09316608 342.3659206 -1.94160425 343.78062419 3.4375 342.8125 C7.26926368 341.07970969 10.83476615 338.97499073 14.4375 336.8125 C16.26376483 335.7594482 18.09058652 334.70736156 19.91796875 333.65625 C21.82124249 332.54325547 23.72355273 331.42861201 25.625 330.3125 C27.73434244 329.07806936 29.84371843 327.84369604 31.953125 326.609375 C33.02369141 325.98224609 34.09425781 325.35511719 35.19726562 324.70898438 C39.40221584 322.2478592 43.61179966 319.79472821 47.8215332 317.34179688 C56.20680645 312.45558344 64.58526702 307.55833214 72.94506836 302.62866211 C77.91925173 299.69804843 82.90769728 296.79255096 87.8996582 293.89233398 C91.99933408 291.50725372 96.09267126 289.11142745 100.18505859 286.71386719 C102.42271686 285.40573908 104.66213797 284.10125608 106.90478516 282.80175781 C110.36129393 280.79816386 113.80572836 278.77455845 117.25 276.75 C118.32378906 276.1310083 119.39757812 275.5120166 120.50390625 274.87426758 C121.4990625 274.28540771 122.49421875 273.69654785 123.51953125 273.08984375 C124.39843018 272.57671631 125.2773291 272.06358887 126.18286133 271.53491211 C128.84718875 269.49952175 129.94084951 267.80981801 131.4375 264.8125 C131.88419467 261.91539031 131.88419467 261.91539031 131.81845093 258.77807617 C131.8269104 257.56679047 131.83536987 256.35550476 131.84408569 255.10751343 C131.83825338 253.77349718 131.83210891 252.43948227 131.82568359 251.10546875 C131.82975073 249.69413853 131.83509341 248.2828115 131.84161377 246.87149048 C131.8552764 243.045047 131.84999316 239.2188465 131.84047651 235.39239883 C131.83287443 231.38553468 131.83992705 227.37869115 131.84463501 223.37182617 C131.85009097 216.64335398 131.84290517 209.91498062 131.82861328 203.18652344 C131.81228703 195.41057636 131.81757565 187.63486527 131.8340925 179.85892391 C131.84771194 173.17937419 131.8496248 166.49989546 131.84177649 159.82033634 C131.83710248 155.83236384 131.8364676 151.84450222 131.84638596 147.85653687 C131.85506006 144.10703881 131.84902586 140.35784464 131.83170319 136.60837936 C131.82774068 135.23335652 131.82886839 133.85830805 131.83549118 132.48329544 C131.84370521 130.60451427 131.83157191 128.72567713 131.81845093 126.84692383 C131.81731985 125.79612137 131.81618877 124.74531891 131.81502342 123.66267395 C131.37745984 120.35921714 130.38807792 118.49186202 128.4375 115.8125 C126.1175835 114.07257718 126.1175835 114.07257718 123.37890625 112.68359375 C122.3638501 112.13002197 121.34879395 111.5764502 120.30297852 111.00610352 C119.21299561 110.42658936 118.1230127 109.8470752 117 109.25 C114.70696863 107.99989583 112.41531611 106.74725938 110.125 105.4921875 C108.41763672 104.55971191 108.41763672 104.55971191 106.67578125 103.60839844 C102.21784424 101.13609863 97.85275284 98.52691568 93.5 95.875 C84.85559246 90.62959426 76.11759561 85.55931813 67.35180664 80.51977539 C60.03125017 76.31065632 52.72734599 72.07457198 45.4375 67.8125 C37.27962486 63.04645406 29.11256571 58.29666834 20.93164062 53.5703125 C19.22483327 52.58407219 17.51865943 51.59673578 15.8125 50.609375 C14.77609375 50.01125 13.7396875 49.413125 12.671875 48.796875 C11.29854004 48.00361816 11.29854004 48.00361816 9.89746094 47.19433594 C0.60329272 41.97351497 -5.50345712 42.92729301 -14.3125 48.75 Z " fill="#0B121A" transform="translate(506.5625,305.1875)"/>
<path d="M0 0 C11.61512872 9.6885364 20.16638599 21.82593353 25.44921875 36.04296875 C25.84109375 37.0896875 26.23296875 38.13640625 26.63671875 39.21484375 C33.27690505 59.96542593 30.43177609 82.37474929 20.59057617 101.51513672 C17.73065876 106.80892787 14.40676789 111.50735063 10.44921875 116.04296875 C9.67707031 117.01105469 8.90492188 117.97914063 8.109375 118.9765625 C0.09087364 128.58251347 -11.06023784 134.61072913 -22.55078125 139.04296875 C-24.20207031 139.69458984 -24.20207031 139.69458984 -25.88671875 140.359375 C-46.03518137 146.97563218 -68.12388 144.29812975 -86.86328125 135.23046875 C-92.97346636 132.10330513 -98.46462521 128.69290338 -103.55078125 124.04296875 C-104.4428125 123.24246094 -105.33484375 122.44195313 -106.25390625 121.6171875 C-121.24284915 107.46778921 -129.87188821 88.78813597 -130.8359375 68.16796875 C-131.4681134 44.70321921 -124.68534253 25.12421969 -109.2578125 7.41015625 C-79.52195254 -23.64144972 -33.28950459 -25.72596992 0 0 Z " fill="#0B121A" transform="translate(556.55078125,435.95703125)"/>
<path d="M0 0 C2.66070924 1.18924576 4.98633511 2.71464871 7.375 4.375 C8.00277344 4.7875 8.63054687 5.2 9.27734375 5.625 C13.83993253 8.67986506 13.83993253 8.67986506 15 11 C12.46764525 9.9870581 9.96464221 8.98320505 7.5 7.8125 C4.58141666 6.86396041 2.91449582 7.16728691 0 8 C0.33 6.35 0.66 4.7 1 3 C-1.31 3 -3.62 3 -6 3 C-6 3.66 -6 4.32 -6 5 C-7.670625 5.44279297 -7.670625 5.44279297 -9.375 5.89453125 C-15.54264385 8.2073977 -19.54516896 13.01026956 -24 17.6875 C-24.87011719 18.58017578 -25.74023438 19.47285156 -26.63671875 20.39257812 C-28.76964892 22.58410528 -30.88997511 24.78644883 -33 27 C-33.66 26.67 -34.32 26.34 -35 26 C-31.98329785 22.93354255 -28.9598391 19.87395226 -25.93017578 16.8203125 C-24.90228994 15.78242212 -23.87621275 14.74273705 -22.85205078 13.70117188 C-21.3723367 12.19696398 -19.88605309 10.69951423 -18.3984375 9.203125 C-17.50817871 8.30239258 -16.61791992 7.40166016 -15.70068359 6.47363281 C-10.65364495 1.85090677 -7.01711929 -1.02428539 0 0 Z " fill="#365773" transform="translate(340,252)"/>
<path d="M0 0 C0.33 0 0.66 0 1 0 C1 26.73 1 53.46 1 81 C0.34 80.67 -0.32 80.34 -1 80 C-0.98839844 79.16855469 -0.97679687 78.33710938 -0.96484375 77.48046875 C-0.95130859 75.85044922 -0.95130859 75.85044922 -0.9375 74.1875 C-0.92589844 73.10855469 -0.91429687 72.02960938 -0.90234375 70.91796875 C-0.86375234 67.93487831 -0.86375234 67.93487831 -2 65 C-1.76540419 63.40688115 -1.52652065 61.81428138 -1.26660156 60.22509766 C-0.6893185 55.40700445 -0.85760153 50.5329737 -0.875 45.6875 C-0.87113281 44.59115234 -0.86726562 43.49480469 -0.86328125 42.36523438 C-0.86457031 41.32044922 -0.86585938 40.27566406 -0.8671875 39.19921875 C-0.86831543 38.24877686 -0.86944336 37.29833496 -0.87060547 36.3190918 C-0.84763766 33.97414824 -0.84763766 33.97414824 -2 32 C-1.34 32 -0.68 32 0 32 C0 28.04 0 24.08 0 20 C-0.66 20 -1.32 20 -2 20 C-1.85780436 17.79142945 -1.71108153 15.58315013 -1.5625 13.375 C-1.48128906 12.14523437 -1.40007813 10.91546875 -1.31640625 9.6484375 C-1.03336056 6.38467612 -0.58961047 3.22056141 0 0 Z " fill="#385A77" transform="translate(637,428)"/>
<path d="M0 0 C0.66 0.99 1.32 1.98 2 3 C0.66666667 4.33333333 -0.66666667 5.66666667 -2 7 C-1.67 6.67 -1.34 6.34 -1 6 C-0.34 6.66 0.32 7.32 1 8 C-0.32 8.99 -1.64 9.98 -3 11 C-3 10.34 -3 9.68 -3 9 C-5.24875747 8.13149826 -5.24875747 8.13149826 -8 8 C-10.67678298 9.75808599 -10.67678298 9.75808599 -13 12 C-13.99 12.66 -14.98 13.32 -16 14 C-16.72965366 16.56282742 -16.72965366 16.56282742 -17 19 C-20 19 -20 19 -22 18 C-20.53216017 14.333912 -18.66121222 12.75576531 -15.4296875 10.546875 C-14.53378906 9.928125 -13.63789062 9.309375 -12.71484375 8.671875 C-11.77769531 8.03765625 -10.84054687 7.4034375 -9.875 6.75 C-8.45767578 5.77546875 -8.45767578 5.77546875 -7.01171875 4.78125 C-4.67977778 3.17951277 -2.34252636 1.58619782 0 0 Z " fill="#355774" transform="translate(663,258)"/>
<path d="M0 0 C0.33 0 0.66 0 1 0 C1 10.23 1 20.46 1 31 C3.31 31.66 5.62 32.32 8 33 C7.01 33.495 7.01 33.495 6 34 C6 34.66 6 35.32 6 36 C2.08636501 34.51551776 0.71062907 32.79924416 -1 29 C-1.39109254 25.55501738 -1.32731838 22.14991363 -1.25 18.6875 C-1.24484375 17.77548828 -1.2396875 16.86347656 -1.234375 15.92382812 C-1.17261554 10.53917563 -0.77456108 5.32823064 0 0 Z " fill="#395872" transform="translate(376,541)"/>
<path d="M0 0 C0.33 1.32 0.66 2.64 1 4 C1.99 4.33 2.98 4.66 4 5 C3.67 5.66 3.34 6.32 3 7 C1.35 7 -0.3 7 -2 7 C-2.226875 7.639375 -2.45375 8.27875 -2.6875 8.9375 C-3.3371875 9.9584375 -3.3371875 9.9584375 -4 11 C-5.66321482 11.35015049 -7.33034549 11.68197057 -9 12 C-11.29289472 13.95809523 -11.29289472 13.95809523 -13 16 C-13.66 15.67 -14.32 15.34 -15 15 C-10.05 10.05 -5.1 5.1 0 0 Z " fill="#355874" transform="translate(290,294)"/>
<path d="M0 0 C0.33 0.66 0.66 1.32 1 2 C2.66666667 2.33333333 4.33333333 2.66666667 6 3 C6.969375 3.495 7.93875 3.99 8.9375 4.5 C12.03314147 6.01623256 14.59713893 6.59489749 18 7 C18.33 8.32 18.66 9.64 19 11 C13.98675172 9.50957484 9.4503258 7.34455852 4.78125 5.0234375 C0.8309092 3.56980086 -2.47218569 3.35670977 -6.375 5 C-6.91125 5.33 -7.4475 5.66 -8 6 C-8 5.34 -8 4.68 -8 4 C-5.36 2.68 -2.72 1.36 0 0 Z " fill="#385976" transform="translate(392,699)"/>
<path d="M0 0 C1.32 0.66 2.64 1.32 4 2 C1.60688647 3.46295997 -0.78928086 4.9204522 -3.1875 6.375 C-3.86103516 6.7875 -4.53457031 7.2 -5.22851562 7.625 C-11.04850277 11.14538247 -15.34590725 13.27811193 -22.3125 13.125 C-23.38113281 13.10695313 -24.44976562 13.08890625 -25.55078125 13.0703125 C-26.35902344 13.04710937 -27.16726563 13.02390625 -28 13 C-28 12.67 -28 12.34 -28 12 C-27.36835938 12.00902344 -26.73671875 12.01804687 -26.0859375 12.02734375 C-17.27602706 11.73537265 -10.38329193 8.69227632 -3 4 C-1.12560241 1.92192829 -1.12560241 1.92192829 0 0 Z " fill="#050911" transform="translate(530,677)"/>
<path d="M0 0 C1.65 0 3.3 0 5 0 C5.98316039 3.40388303 6.29411056 6.72259589 6.5625 10.25 C6.64628906 11.32765625 6.73007812 12.4053125 6.81640625 13.515625 C6.87699219 14.33546875 6.93757813 15.1553125 7 16 C7.99 16 8.98 16 10 16 C9 19 9 19 7 22 C6.61908203 20.24623047 6.61908203 20.24623047 6.23046875 18.45703125 C5.88327833 16.90874963 5.53559609 15.36057825 5.1875 13.8125 C5.02185547 13.04357422 4.85621094 12.27464844 4.68554688 11.48242188 C3.69947686 7.14743481 2.58950227 3.70246886 0 0 Z " fill="#385975" transform="translate(439,721)"/>
<path d="M0 0 C0.33 0.99 0.66 1.98 1 3 C2.8960036 3.91886425 2.8960036 3.91886425 5.1875 4.5 C9.0319594 5.65944014 12.41926661 7.16799687 16 9 C16.721875 9.12375 17.44375 9.2475 18.1875 9.375 C21.00370777 10.34610613 21.69187618 12.44915854 23 15 C17.76189941 13.03571228 12.86006726 10.45641802 7.8828125 7.921875 C4.30550349 6.11297157 0.75934351 4.40975382 -3 3 C-2.01 2.67 -1.02 2.34 0 2 C0 1.34 0 0.68 0 0 Z " fill="#3A5973" transform="translate(530,418)"/>
<path d="M0 0 C4.46182436 1.31074365 7.99618757 3.07066011 11.875 5.625 C12.84179688 6.25664062 13.80859375 6.88828125 14.8046875 7.5390625 C15.52914062 8.02117187 16.25359375 8.50328125 17 9 C16.01 9.495 16.01 9.495 15 10 C13.0546875 9.22265625 13.0546875 9.22265625 10.875 8.0625 C10.15054688 7.68222656 9.42609375 7.30195313 8.6796875 6.91015625 C7.84824219 6.45962891 7.84824219 6.45962891 7 6 C6.67 6.99 6.34 7.98 6 9 C5.67 8.01 5.34 7.02 5 6 C4.34 6 3.68 6 3 6 C2.67 5.01 2.34 4.02 2 3 C1.34 2.01 0.68 1.02 0 0 Z " fill="#375874" transform="translate(586,394)"/>
<path d="M0 0 C1.4606285 2.64738916 2 3.89448334 2 7 C-4.93 6.505 -4.93 6.505 -12 6 C-12 5.67 -12 5.34 -12 5 C-9.36 5 -6.72 5 -4 5 C-4.33 4.01 -4.66 3.02 -5 2 C-4.360625 1.855625 -3.72125 1.71125 -3.0625 1.5625 C-1.02454854 1.18992819 -1.02454854 1.18992819 0 0 Z " fill="#345777" transform="translate(513,299)"/>
<path d="M0 0 C0.66 0.33 1.32 0.66 2 1 C-3.28 6.28 -8.56 11.56 -14 17 C-14 13.04435836 -12.59478606 11.89133304 -10 9 C-9.01 8.34 -8.02 7.68 -7 7 C-6.67 6.01 -6.34 5.02 -6 4 C-3.5 2.375 -3.5 2.375 -1 1 C-0.67 0.67 -0.34 0.34 0 0 Z " fill="#04080F" transform="translate(319,262)"/>
<path d="M0 0 C-3 2 -3 2 -6 3 C-5.34 3.33 -4.68 3.66 -4 4 C-3.375 6.0625 -3.375 6.0625 -3 8 C-6.04386724 8.08226668 -8.07175348 7.97608217 -11 7 C-8.76456876 1.59770784 -5.88000164 -0.49000014 0 0 Z " fill="#365774" transform="translate(227,439)"/>
<path d="M0 0 C5.71658336 -0.45732667 8.48649253 0.47726246 13 4 C11 5 11 5 8 5 C7.01 6.485 7.01 6.485 6 8 C5.34 7.67 4.68 7.34 4 7 C4.99 5.35 5.98 3.7 7 2 C4.36 2 1.72 2 -1 2 C-0.67 1.34 -0.34 0.68 0 0 Z " fill="#355774" transform="translate(672,252)"/>
<path d="M0 0 C1.98 0 3.96 0 6 0 C2.25618103 4.09480199 -1.8668907 7.7448683 -7 10 C-7.99 9.67 -8.98 9.34 -10 9 C-8.20963542 8.05598958 -6.41927083 7.11197917 -4.62890625 6.16796875 C-2.67732013 5.00980201 -2.67732013 5.00980201 -2 2 C-1.01 2.33 -0.02 2.66 1 3 C0.67 2.01 0.34 1.02 0 0 Z " fill="#375774" transform="translate(350,725)"/>
<path d="M0 0 C0.33 0.66 0.66 1.32 1 2 C0.01 2.66 -0.98 3.32 -2 4 C-2.33 4.66 -2.66 5.32 -3 6 C-3.99 5.67 -4.98 5.34 -6 5 C-6.33 5.99 -6.66 6.98 -7 8 C-7.66 8 -8.32 8 -9 8 C-9 8.66 -9 9.32 -9 10 C-10.32 9.34 -11.64 8.68 -13 8 C-11.58531689 7.03874097 -10.1681636 6.08111675 -8.75 5.125 C-7.96109375 4.59132813 -7.1721875 4.05765625 -6.359375 3.5078125 C-4.28444308 2.18177985 -2.22385028 1.05071825 0 0 Z " fill="#355774" transform="translate(437,387)"/>
<path d="M0 0 C3.96 0 7.92 0 12 0 C12 0.66 12 1.32 12 2 C13.32 1.67 14.64 1.34 16 1 C16 1.66 16 2.32 16 3 C16.99 3.33 17.98 3.66 19 4 C12.4491015 3.54240047 6.3246158 2.7899856 0 1 C0 0.67 0 0.34 0 0 Z " fill="#3B5B77" transform="translate(239,551)"/>
<path d="M0 0 C0.33 0 0.66 0 1 0 C1.05390357 2.93774463 1.0936255 5.87450232 1.125 8.8125 C1.15013672 10.06256836 1.15013672 10.06256836 1.17578125 11.33789062 C1.18222656 12.14033203 1.18867187 12.94277344 1.1953125 13.76953125 C1.20578613 14.50792236 1.21625977 15.24631348 1.22705078 16.00708008 C1 18 1 18 -1 21 C-1.19401633 19.18818595 -1.38004375 17.37551468 -1.5625 15.5625 C-1.66691406 14.55316406 -1.77132812 13.54382813 -1.87890625 12.50390625 C-1.93884766 11.26447266 -1.93884766 11.26447266 -2 10 C-1.67 9.67 -1.34 9.34 -1 9 C-0.76807135 7.48530552 -0.58784762 5.96245438 -0.4375 4.4375 C-0.35371094 3.61121094 -0.26992188 2.78492188 -0.18359375 1.93359375 C-0.12300781 1.29550781 -0.06242188 0.65742188 0 0 Z " fill="#05080E" transform="translate(585,493)"/>
<path d="M0 0 C-4.88570819 2.84456788 -9.52067211 5.45454854 -15 7 C-15 6.34 -15 5.68 -15 5 C-13.06891037 3.96709159 -11.129882 2.94901328 -9.1875 1.9375 C-8.10855469 1.36902344 -7.02960938 0.80054688 -5.91796875 0.21484375 C-3 -1 -3 -1 0 0 Z " fill="#070C13" transform="translate(479,425)"/>
<path d="M0 0 C0.99 0.33 1.98 0.66 3 1 C1.40084119 1.69906942 -0.20455045 2.38389468 -1.8125 3.0625 C-2.70582031 3.44535156 -3.59914063 3.82820313 -4.51953125 4.22265625 C-7 5 -7 5 -10 4 C-10 3.34 -10 2.68 -10 2 C-8.68 1.67 -7.36 1.34 -6 1 C-6.66 0.67 -7.32 0.34 -8 0 C-5.11301479 -1.4434926 -3.10530768 -0.63373626 0 0 Z " fill="#365773" transform="translate(480,421)"/>
<path d="M0 0 C0.99 0.66 1.98 1.32 3 2 C3 2.66 3 3.32 3 4 C4.36125 4.37125 4.36125 4.37125 5.75 4.75 C9.10351489 6.03981342 10.67708236 7.31971042 13 10 C9.30123909 8.62712658 6.0485524 6.93644547 2.6875 4.875 C1.36298828 4.06675781 1.36298828 4.06675781 0.01171875 3.2421875 C-0.65214844 2.83226562 -1.31601562 2.42234375 -2 2 C-1.34 1.34 -0.68 0.68 0 0 Z " fill="#395A75" transform="translate(390,579)"/>
<path d="M0 0 C1.32 0.66 2.64 1.32 4 2 C1.03 4.97 -1.94 7.94 -5 11 C-5 10.01 -5 9.02 -5 8 C-4 7 -3 6 -2 5 C-0.80972016 2.40084462 -0.80972016 2.40084462 0 0 Z " fill="#375874" transform="translate(450,436)"/>
<path d="M0 0 C1.19692469 3.59077406 0.73508446 4.24312273 -0.8125 7.5625 C-1.16957031 8.34753906 -1.52664063 9.13257813 -1.89453125 9.94140625 C-3 12 -3 12 -5 14 C-7.125 13.625 -7.125 13.625 -9 13 C-8.01 12.67 -7.02 12.34 -6 12 C-4.79117904 9.99983534 -4.79117904 9.99983534 -4 8 C-3.34 8 -2.68 8 -2 8 C-1.7834375 6.576875 -1.7834375 6.576875 -1.5625 5.125 C-1 2 -1 2 0 0 Z " fill="#050A11" transform="translate(281,414)"/>
<path d="M0 0 C0.66 0.33 1.32 0.66 2 1 C0.7934375 1.86625 0.7934375 1.86625 -0.4375 2.75 C-2.97866739 4.98126893 -3.65120368 5.74456771 -4 9 C-4.33 8.34 -4.66 7.68 -5 7 C-5.99 7 -6.98 7 -8 7 C-6.88424427 3.65273281 -6.48655378 3.37920252 -3.5625 1.75 C-2.386875 1.1725 -1.21125 0.595 0 0 Z " fill="#070C13" transform="translate(385,372)"/>
<path d="M0 0 C3.63 0 7.26 0 11 0 C9 3 9 3 6.8359375 3.73046875 C5.61777344 3.95669922 5.61777344 3.95669922 4.375 4.1875 C3.14910156 4.42533203 3.14910156 4.42533203 1.8984375 4.66796875 C0.95871094 4.83232422 0.95871094 4.83232422 0 5 C0.33 4.01 0.66 3.02 1 2 C0.67 1.34 0.34 0.68 0 0 Z " fill="#365977" transform="translate(615,285)"/>
<path d="M0 0 C6.47887324 5.07042254 6.47887324 5.07042254 8 9 C8.65976469 10.33676205 9.32560561 11.6705586 10 13 C5.89601599 9.72805658 2.28938344 6.84810612 0 2 C0 1.34 0 0.68 0 0 Z " fill="#040A11" transform="translate(439,542)"/>
<path d="M0 0 C4.61513112 1.31860889 8.09897612 3.21355437 12 6 C9.57333205 7.21333397 7.66500278 7 5 7 C4.731875 6.360625 4.46375 5.72125 4.1875 5.0625 C3.11332248 2.66868314 3.11332248 2.66868314 0 2 C0 1.34 0 0.68 0 0 Z " fill="#375875" transform="translate(422,646)"/>
<path d="M0 0 C0.99 0.33 1.98 0.66 3 1 C2.42647107 4.87132028 0.51295648 7.08172796 -2 10 C-2 7.03 -2 4.06 -2 1 C-1.34 0.67 -0.68 0.34 0 0 Z " fill="#2A4963" transform="translate(299,370)"/>
<path d="M0 0 C0.33 0.66 0.66 1.32 1 2 C0.71125 2.66 0.4225 3.32 0.125 4 C-1.46771537 8.24724098 -1.66799582 12.50046969 -2 17 C-2.33 17 -2.66 17 -3 17 C-3.08126087 14.91731407 -3.13930839 12.83371342 -3.1875 10.75 C-3.22230469 9.58984375 -3.25710938 8.4296875 -3.29296875 7.234375 C-2.97982934 3.77731593 -2.34290892 2.48434437 0 0 Z " fill="#3A5871" transform="translate(378,422)"/>
<path d="M0 0 C-0.66 0 -1.32 0 -2 0 C-2 0.99 -2 1.98 -2 3 C-4.97 3.66 -7.94 4.32 -11 5 C-4.83050847 -1.61016949 -4.83050847 -1.61016949 0 0 Z " fill="#345775" transform="translate(481,364)"/>
<path d="M0 0 C4.455 0.99 4.455 0.99 9 2 C9 2.99 9 3.98 9 5 C9.99 5.33 10.98 5.66 12 6 C11.01 6.495 11.01 6.495 10 7 C7.6171875 5.8203125 7.6171875 5.8203125 4.875 4.125 C3.96492188 3.57070313 3.05484375 3.01640625 2.1171875 2.4453125 C1.41851562 1.96835937 0.71984375 1.49140625 0 1 C0 0.67 0 0.34 0 0 Z " fill="#385975" transform="translate(462,623)"/>
<path d="M0 0 C0.66 0.33 1.32 0.66 2 1 C0.3811004 2.03048037 -1.24532489 3.04914678 -2.875 4.0625 C-3.77992188 4.63097656 -4.68484375 5.19945312 -5.6171875 5.78515625 C-6.40351563 6.18605469 -7.18984375 6.58695312 -8 7 C-8.66 6.67 -9.32 6.34 -10 6 C-9.67 5.01 -9.34 4.02 -9 3 C-8.071875 2.87625 -7.14375 2.7525 -6.1875 2.625 C-2.86074765 2.18466918 -2.86074765 2.18466918 0 0 Z " fill="#385874" transform="translate(386,370)"/>
<path d="M0 0 C3.29696105 1.09898702 4.04670589 1.94597387 6.1875 4.5625 C6.71730469 5.20316406 7.24710938 5.84382813 7.79296875 6.50390625 C8.19128906 6.99761719 8.58960938 7.49132812 9 8 C8.01 8.495 8.01 8.495 7 9 C7 8.34 7 7.68 7 7 C6.01 7.33 5.02 7.66 4 8 C4 7.01 4 6.02 4 5 C2.68 4.34 1.36 3.68 0 3 C0 2.01 0 1.02 0 0 Z " fill="#355978" transform="translate(687,259)"/>
<path d="M0 0 C2.10827055 3.16240582 2.33817465 4.50657469 2.625 8.1875 C2.69976563 9.08855469 2.77453125 9.98960937 2.8515625 10.91796875 C2.90054688 11.60503906 2.94953125 12.29210937 3 13 C1 10 1 10 1 8 C0.34 8 -0.32 8 -1 8 C-0.67 5.36 -0.34 2.72 0 0 Z " fill="#375A78" transform="translate(562,228)"/>
<path d="M0 0 C1.32 0.66 2.64 1.32 4 2 C2.73461631 2.84158536 1.46246221 3.67299748 0.1875 4.5 C-0.87404297 5.19609375 -0.87404297 5.19609375 -1.95703125 5.90625 C-4 7 -4 7 -7 7 C-6.67 6.01 -6.34 5.02 -6 4 C-5.01 4 -4.02 4 -3 4 C-2.01 3.67 -1.02 3.34 0 3 C0 2.01 0 1.02 0 0 Z " fill="#375974" transform="translate(483,311)"/>
<path d="M0 0 C2.64 0.33 5.28 0.66 8 1 C8 1.99 8 2.98 8 4 C5.6875 4.25 5.6875 4.25 3 4 C1.1875 2 1.1875 2 0 0 Z " fill="#335878" transform="translate(456,784)"/>
<path d="M0 0 C0.66 0.33 1.32 0.66 2 1 C-0.25 3.5 -0.25 3.5 -3 6 C-4.32 6 -5.64 6 -7 6 C-7 5.34 -7 4.68 -7 4 C-1.7265625 0.77734375 -1.7265625 0.77734375 0 0 Z " fill="#060C13" transform="translate(406,360)"/>
<path d="M0 0 C0.66 0.33 1.32 0.66 2 1 C1.67 2.32 1.34 3.64 1 5 C-0.98 5 -2.96 5 -5 5 C-5 4.34 -5 3.68 -5 3 C-2.625 1.3125 -2.625 1.3125 0 0 Z " fill="#365874" transform="translate(582,650)"/>
<path d="M0 0 C-0.33 0.99 -0.66 1.98 -1 3 C-8.625 4.25 -8.625 4.25 -12 2 C-10.37548581 1.66430703 -8.75037083 1.3315204 -7.125 1 C-6.22007812 0.814375 -5.31515625 0.62875 -4.3828125 0.4375 C-2 0 -2 0 0 0 Z " fill="#365976" transform="translate(399,285)"/>
<path d="M0 0 C-0.33 0.99 -0.66 1.98 -1 3 C-2.65 3.33 -4.3 3.66 -6 4 C-6.66 3.01 -7.32 2.02 -8 1 C-2.25 -1.125 -2.25 -1.125 0 0 Z " fill="#2B4D6B" transform="translate(666,262)"/>
</svg>
